# xmcd
#
# Track frame offsets:
#	150
#	17110
#	34143
#	53416
#	70251
#	87343
#	103293
#	122157
#	141192
#	162252
#	179212
#	196245
#	215518
#	232353
#	249445
#	265395
#	284259
#	303294
#
# Disc length: 4324
#
# Revision: 2
# Processed by: cddbd v1.5.2PL0 Copyright (c) Steve Scherf et al.
# Submitted via: kJams Pro (development) 1.0patch50.14
#
DISCID=1210e212
DTITLE=Various Artist - PHM0807−Country
DYEAR=2008
DGENRE=Country
TTITLE0=Aldean, Jason - Relentless
TTITLE1=Chesney, Kenny - Better As A Memory
TTITLE2=Covington, Bucky - I'll Walk
TTITLE3=Jackson, Alan - Good Time
TTITLE4=Lonestar - Let Me Love You
TTITLE5=Gregory, Adam - Crazy Days
TTITLE6=Nail, David - I'm About To Come Alive
TTITLE7=Sugarland and Little Big Town and Jake Owen - Life In A Northern Town
TTITLE8=Point Of Grace - How You Live (Turn Up The Music)
TTITLE9=Aldean, Jason w⁄vocal - Relentless (Vocal)
TTITLE10=Chesney, Kenny w⁄vocal - Better As A Memory (Vocal)
TTITLE11=Covington, Bucky w⁄vocal - I'll Walk (Vocal)
TTITLE12=Jackson, Alan w⁄vocal - Good Time (Vocal)
TTITLE13=Lonestar w⁄vocal - Let Me Love You (Vocal)
TTITLE14=Gregory, Adam w⁄vocal - Crazy Days (Vocal)
TTITLE15=Nail, David w⁄vocal - I'm About To Come Alive (Vocal)
TTITLE16=Sugarland and Little Big Town and Jake Owen w⁄vocal - Life In A Northern Town (Vocal)
TTITLE17=Point Of Grace w⁄vocal - How You Live (Turn Up The Music) (Vocal)
EXTD=Label=Pop Hits Monthly Nashville
EXTT0=
EXTT1=
EXTT2=
EXTT3=
EXTT4=
EXTT5=
EXTT6=
EXTT7=
EXTT8=
EXTT9=
EXTT10=
EXTT11=
EXTT12=
EXTT13=
EXTT14=
EXTT15=
EXTT16=
EXTT17=
PLAYORDER=
